<svg xmlns="http://www.w3.org/2000/svg" xmlns:xlink="http://www.w3.org/1999/xlink" id="Layer_1" x="0" y="0" version="1.1" viewBox="0 0 493 298.8" style="enable-background:new 0 0 493 298.8" xml:space="preserve"><style type="text/css">.st1,.st2,.st3{fill:#1d1d1b;stroke:#eddfd6;stroke-width:.42;stroke-miterlimit:10}.st2,.st3{fill:#eddfd6;stroke:#1d1d1b}.st3{fill:none}.st4{opacity:.19;fill:#1d1d1b;enable-background:new}</style><g id="b"><g id="c"><g><defs><rect id="SVGID_1_" width="492.8" height="298.6" x=".2"/></defs><clipPath id="SVGID_00000117668101111735837220000010178103185437969847_"><use xlink:href="#SVGID_1_" style="overflow:visible"/></clipPath><g style="clip-path:url(#SVGID_00000117668101111735837220000010178103185437969847_)"><rect width="492.8" height="298.6" x=".2" class="st1"/></g></g><g><g><polygon points="190.3 124.2 184.7 129.7 184.7 124.2" class="st2"/><polygon points="210.6 124.2 192.9 141.8 184.7 141.8 184.7 136.6 197.1 124.2" class="st2"/><polygon points="230.9 124.2 213.2 141.8 199.8 141.8 217.5 124.2" class="st2"/><polygon points="251.2 124.2 233.6 141.8 220.1 141.8 237.8 124.2" class="st2"/><polygon points="271.5 124.2 253.9 141.8 240.4 141.8 258.1 124.2" class="st2"/><polygon points="291.8 124.2 274.2 141.8 260.8 141.8 278.4 124.2" class="st2"/><polygon points="306.9 124.2 306.9 129.4 294.5 141.8 281.1 141.8 298.7 124.2" class="st2"/><polygon points="301.4 141.8 306.9 136.3 306.9 141.8" class="st2"/></g><rect width="70.8" height="7.3" x="210.6" y="187.1" class="st2"/><rect width="122.2" height="17.6" x="184.7" y="124.2" class="st3"/><rect width="10.5" height="109.5" x="200.1" y="109.5" class="st2"/><rect width="10.5" height="109.5" x="281.3" y="109.5" class="st2"/><circle cx="205.3" cy="104.7" r="11.2" class="st2"/><circle cx="286.6" cy="104.7" r="11.2" class="st2"/><g><polygon points="332.6 124.2 327.1 129.7 327.1 124.2" class="st2"/><polygon points="352.9 124.2 335.3 141.8 327.1 141.8 327.1 136.6 339.5 124.2" class="st2"/><polygon points="373.2 124.2 355.6 141.8 342.2 141.8 359.8 124.2" class="st2"/><polygon points="393.5 124.2 375.9 141.8 362.5 141.8 380.1 124.2" class="st2"/><polygon points="413.9 124.2 396.2 141.8 382.8 141.8 400.4 124.2" class="st2"/><polygon points="434.2 124.2 416.5 141.8 403.1 141.8 420.7 124.2" class="st2"/><polygon points="449.3 124.2 449.3 129.4 436.8 141.8 423.4 141.8 441 124.2" class="st2"/><polygon points="443.7 141.8 449.3 136.3 449.3 141.8" class="st2"/></g><rect width="70.8" height="7.3" x="352.9" y="187.1" class="st2"/><rect width="122.2" height="17.6" x="327.1" y="124.2" class="st3"/><rect width="10.5" height="109.5" x="342.5" y="109.5" class="st2"/><rect width="10.5" height="109.5" x="423.7" y="109.5" class="st2"/><circle cx="347.7" cy="104.7" r="11.2" class="st2"/><circle cx="428.9" cy="104.7" r="11.2" class="st2"/><g><polygon points="53.4 124.2 47.8 129.7 47.8 124.2" class="st2"/><polygon points="73.7 124.2 56 141.8 47.8 141.8 47.8 136.6 60.3 124.2" class="st2"/><polygon points="94 124.2 76.4 141.8 62.9 141.8 80.6 124.2" class="st2"/><polygon points="114.3 124.2 96.7 141.8 83.2 141.8 100.9 124.2" class="st2"/><polygon points="134.6 124.2 117 141.8 103.6 141.8 121.2 124.2" class="st2"/><polygon points="154.9 124.2 137.3 141.8 123.9 141.8 141.5 124.2" class="st2"/><polygon points="170 124.2 170 129.4 157.6 141.8 144.2 141.8 161.8 124.2" class="st2"/><polygon points="164.5 141.8 170 136.3 170 141.8" class="st2"/></g><rect width="70.8" height="7.3" x="73.7" y="187.1" class="st2"/><rect width="122.2" height="17.6" x="47.8" y="124.2" class="st3"/><rect width="10.5" height="109.5" x="63.2" y="109.5" class="st2"/><rect width="10.5" height="109.5" x="144.4" y="109.5" class="st2"/><circle cx="68.4" cy="104.7" r="11.2" class="st2"/><circle cx="149.7" cy="104.7" r="11.2" class="st2"/></g><path d="M210.6,194.4c0,0,158.4-23.6,72-49.6c-86.4-26-117.7-28.2-92.6-60.3c25.2-32,93.4-44.5,62.2-54.2 S198,11.2,197.9,10.2c-2.9-19.5,83.2,6.4,83.2,6.4l46.5,28.6l1.5,66.3c0,0-14.7,68.1-6.2,71.9c46.6,20.9-51.4,12-51.4,12 L210.6,194.4L210.6,194.4z" class="st4"/><path d="M73.7,263.7c0,0,116.3-5.7,29.9-31.7c-86.4-26-120.2,9-95-23.1s99-57.4,67.8-67.1s-54.1-20.2-54.2-21.2 c-2.9-19.5,74.9,1.5,74.9,1.5l41.4,47.2l26,63.3c0,0-8.5,18.5,0,22.3c46.6,20.9-47.2,16.7-47.2,16.7L73.7,263.7L73.7,263.7z" class="st4"/><path d="M373.7,200.3c0,0,145-20.7,58.6-46.7s-117.7-28.2-92.6-60.3c25.2-32,93.4-44.5,62.2-54.2S347.8,20,347.7,19 c-2.9-19.5,80.6-12.5,80.6-12.5L477.4,54l1.5,66.3c0,0-13.2,56.8-4.7,60.6c46.6,20.9-52.6,19.4-52.6,19.4H373.7z" class="st4"/></g></g></svg>