<svg xmlns="http://www.w3.org/2000/svg" xmlns:xlink="http://www.w3.org/1999/xlink" id="Capa_1" x="0" y="0" version="1.1" viewBox="0 0 134.9 134.9" style="enable-background:new 0 0 134.9 134.9" xml:space="preserve"><style type="text/css">.st0{fill:#1d1d1b}.st1{fill:#eddfd6}.st11{stroke-width:.42}.st11,.st26,.st4{stroke-miterlimit:10}.st4{fill:#1d1d1b;stroke:#eddfd6;stroke-width:.42}.st11{fill:#eddfd6;stroke:#1d1d1b}.st26{fill:#1d1d1b;stroke:#eddfd6;stroke-width:.53}.st27{font-family:&apos;NotoSans-Bold&apos;}.st28{font-size:19px}</style><g id="_x31_5"><rect width="135" height="135" x="0" y="0" class="st0"/><g><g><g><circle cx="36.8" cy="59.8" r="12.8" class="st26"/><circle cx="36.8" cy="59.8" r="10.3" class="st4"/></g><path d="M43.3,59.8c-1.8,0-3.4,0.7-4.6,1.9c-1.2,1.2-1.9,2.8-1.9,4.6c0-1.8-0.7-3.4-1.9-4.6 c-1.2-1.2-2.8-1.9-4.6-1.9c1.8,0,3.4-0.7,4.6-1.9c1.2-1.2,1.9-2.8,1.9-4.6C36.8,56.9,39.7,59.8,43.3,59.8z" class="st11"/></g><g><g><circle cx="98.1" cy="59.8" r="12.8" class="st26"/><circle cx="98.1" cy="59.8" r="10.3" class="st4"/></g><path d="M104.6,59.8c-1.8,0-3.4,0.7-4.6,1.9c-1.2,1.2-1.9,2.8-1.9,4.6c0-1.8-0.7-3.4-1.9-4.6 c-1.2-1.2-2.8-1.9-4.6-1.9c1.8,0,3.4-0.7,4.6-1.9c1.2-1.2,1.9-2.8,1.9-4.6C98.1,56.9,101,59.8,104.6,59.8z" class="st11"/></g><g><g><circle cx="67.5" cy="44.8" r="12.8" class="st26"/><circle cx="67.5" cy="44.8" r="10.3" class="st4"/></g><path d="M74,44.8c-1.8,0-3.4,0.7-4.6,1.9c-1.2,1.2-1.9,2.8-1.9,4.6c0-1.8-0.7-3.4-1.9-4.6c-1.2-1.2-2.8-1.9-4.6-1.9 c1.8,0,3.4-0.7,4.6-1.9c1.2-1.2,1.9-2.8,1.9-4.6C67.5,41.9,70.4,44.8,74,44.8z" class="st11"/></g><g><g><circle cx="36.8" cy="90.1" r="12.8" class="st26"/><circle cx="36.8" cy="90.1" r="10.3" class="st4"/></g><path d="M43.3,90.1c-1.8,0-3.4,0.7-4.6,1.9c-1.2,1.2-1.9,2.8-1.9,4.6c0-1.8-0.7-3.4-1.9-4.6 c-1.2-1.2-2.8-1.9-4.6-1.9c1.8,0,3.4-0.7,4.6-1.9c1.2-1.2,1.9-2.8,1.9-4.6C36.8,87.2,39.7,90.1,43.3,90.1z" class="st11"/></g><g><g><circle cx="98.1" cy="90.1" r="12.8" class="st26"/><circle cx="98.1" cy="90.1" r="10.3" class="st4"/></g><path d="M104.6,90.1c-1.8,0-3.4,0.7-4.6,1.9c-1.2,1.2-1.9,2.8-1.9,4.6c0-1.8-0.7-3.4-1.9-4.6 c-1.2-1.2-2.8-1.9-4.6-1.9c1.8,0,3.4-0.7,4.6-1.9c1.2-1.2,1.9-2.8,1.9-4.6C98.1,87.2,101,90.1,104.6,90.1z" class="st11"/></g><g><g><circle cx="67.5" cy="75.1" r="12.8" class="st26"/><circle cx="67.5" cy="75.1" r="10.3" class="st4"/></g><path d="M74,75.1c-1.8,0-3.4,0.7-4.6,1.9c-1.2,1.2-1.9,2.8-1.9,4.6c0-1.8-0.7-3.4-1.9-4.6c-1.2-1.2-2.8-1.9-4.6-1.9 c1.8,0,3.4-0.7,4.6-1.9c1.2-1.2,1.9-2.8,1.9-4.6C67.5,72.2,70.4,75.1,74,75.1z" class="st11"/></g></g><g><path d="M-0.1-0.1h28.5v20.2c0,3.8-3.1,6.8-6.8,6.8H-0.1V-0.1z" class="st1"/><text class="st0 st27 st28" transform="matrix(1 0 0 1 2.4319 -2.232)">15</text><g><path d="M11.2,20.5H8.3v-7.8c0-0.3,0-0.7,0-1.3s0-1,0.1-1.4C8.4,10,8.2,10.2,8,10.4c-0.2,0.2-0.4,0.4-0.6,0.5 l-1.6,1.3l-1.4-1.7l4.4-3.5h2.4V20.5z" class="st0"/><path d="M19.9,11.8c0.8,0,1.6,0.2,2.2,0.5c0.6,0.3,1.2,0.8,1.5,1.4c0.4,0.6,0.6,1.4,0.6,2.3c0,1.5-0.5,2.6-1.4,3.5 c-0.9,0.8-2.3,1.3-4,1.3c-0.7,0-1.4-0.1-2-0.2s-1.2-0.3-1.6-0.6v-2.5c0.5,0.2,1,0.4,1.7,0.6c0.7,0.2,1.3,0.3,1.9,0.3 c0.8,0,1.5-0.2,1.9-0.5c0.4-0.3,0.7-0.9,0.7-1.6c0-1.4-0.9-2.1-2.7-2.1c-0.4,0-0.7,0-1.1,0.1c-0.4,0.1-0.7,0.1-1,0.2l-1.1-0.6 l0.5-6.9h7.4v2.4h-4.8L18.2,12c0.2,0,0.4-0.1,0.7-0.1C19.2,11.9,19.5,11.8,19.9,11.8z" class="st0"/></g></g></g></svg>