<svg xmlns="http://www.w3.org/2000/svg" xmlns:xlink="http://www.w3.org/1999/xlink" id="Capa_1" x="0" y="0" version="1.1" viewBox="0 0 134.9 134.9" style="enable-background:new 0 0 134.9 134.9" xml:space="preserve"><style type="text/css">.st0{fill:#1d1d1b}.st1,.st21{fill:#eddfd6}.st21{stroke:#1d1d1b}.st21,.st22,.st23,.st24{stroke-width:.4786;stroke-miterlimit:10}.st22{fill:#1d1d1b;stroke:#eddfd6}.st23,.st24{fill:none;stroke:#1d1d1b}.st24{stroke:#eddfd6}.st25{font-family:&apos;NotoSans-Bold&apos;}.st26{font-size:19px}</style><g id="_x31_0"><rect width="135.1" height="135.3" x="-.1" y="-.1" class="st0"/><g><rect width="53.6" height="84.8" x="56" y="25.1" class="st21"/><rect width="50.6" height="83" x="57.6" y="26.8" class="st21"/><ellipse cx="69.2" cy="72.2" class="st22" rx="1.1" ry="1.7"/><polygon points="103.8 31.8 71.3 37.8 71.3 109.9 62 109.9 62 31.8" class="st0"/><polygon points="103.8 109.9 64.7 101.6 64.7 109.9" class="st0"/><circle cx="74.7" cy="71.2" r="1.9" class="st23"/><g><path d="M66.6,71.2c0,14.6,11.8,26.4,26.4,26.4h2c14.4,0,26.1-11.5,26.4-25.9" class="st24"/><polygon points="123.3 73.5 122.9 73.8 121.4 72 119.7 73.6 119.3 73.3 121.4 71.2" class="st1"/></g><g><path d="M11.7,69.4c0,14.6,11.8,26.4,26.4,26.4h2c14.4,0,26.1-11.5,26.4-25.9" class="st24"/><polygon points="68.4 71.6 68.1 71.9 66.5 70.1 64.8 71.8 64.5 71.4 66.6 69.4" class="st1"/></g><path d="M71.3,86.3C76,93.2,84,97.7,93,97.7h2c5.4,0,10.4-1.6,14.6-4.4" class="st23"/><path d="M62,84.3c-1.6,2.4-3.7,4.5-6,6.3" class="st23"/></g><g><path d="M-0.1-0.1h28.5v20.2c0,3.8-3.1,6.8-6.8,6.8H-0.1V-0.1z" class="st1"/><text class="st0 st25 st26" transform="matrix(1 0 0 1 2.4298 -2.2052)">10</text><g><path d="M11.4,20.7H8.5v-7.8c0-0.3,0-0.7,0-1.3s0-1,0.1-1.4c-0.1,0.1-0.2,0.2-0.4,0.4c-0.2,0.2-0.4,0.4-0.6,0.5 L6,12.3l-1.4-1.7L9,7.1h2.4V20.7z" class="st0"/><path d="M24.6,13.9c0,1.5-0.2,2.7-0.5,3.7s-0.8,1.8-1.5,2.4c-0.7,0.6-1.6,0.8-2.8,0.8c-1.6,0-2.8-0.6-3.6-1.8 s-1.1-2.9-1.1-5.1c0-1.5,0.2-2.7,0.5-3.8c0.3-1,0.8-1.8,1.5-2.4c0.7-0.6,1.6-0.8,2.8-0.8c1.6,0,2.8,0.6,3.6,1.8 C24.2,10,24.6,11.7,24.6,13.9z M17.9,13.9c0,1.5,0.1,2.7,0.4,3.5c0.3,0.8,0.8,1.2,1.5,1.2c0.7,0,1.2-0.4,1.5-1.2 c0.3-0.8,0.4-1.9,0.4-3.5c0-1.5-0.1-2.7-0.4-3.5c-0.3-0.8-0.8-1.2-1.5-1.2c-0.7,0-1.2,0.4-1.5,1.2C18.1,11.2,17.9,12.4,17.9,13.9 z" class="st0"/></g></g></g></svg>