<svg xmlns="http://www.w3.org/2000/svg" xmlns:xlink="http://www.w3.org/1999/xlink" id="Capa_1" x="0" y="0" version="1.1" viewBox="0 0 134.9 134.9" style="enable-background:new 0 0 134.9 134.9" xml:space="preserve"><style type="text/css">.st0{fill:#1d1d1b}.st1{fill:#eddfd6}.st36{fill:#222}.st38{font-family:&apos;NotoSans-Bold&apos;}.st39{font-size:19px}</style><g id="_x32_9"><path d="M-0.6-0.2H135v135.7H-0.6V67.7V-0.2z" class="st0"/><g><path d="M94.2,73.7l1.3,0.4c0.7,0.2,1.8,0.7,2.5,1c0.6,0.3,1.7,1,2.3,1.4s1.7,1.3,2.3,2c0.6,0.7,1.5,1.7,1.8,2.3 c0.4,0.6,1,1.8,1.3,2.7c0.3,0.8,0.7,2.1,0.8,2.9c0.2,0.8,0.2,2.1,0.1,3.4c-0.1,1.3-0.3,2.6-0.5,3.4c-0.2,0.7-0.7,1.9-1.1,2.6 c-0.4,0.7-1,1.8-1.4,2.3c-0.4,0.5-1.2,1.4-1.7,1.9c-0.6,0.5-1.4,1.2-1.9,1.5c-0.4,0.3-1.4,0.8-2,1.2c-0.7,0.3-1.9,0.8-4.2,1.4 H67.5c-24.5,0-26.4,0-27.6-0.3c-0.7-0.2-2.1-0.8-3.2-1.3c-1.7-0.9-2.2-1.2-3.7-2.7c-1.1-1.1-2-2.3-2.6-3.2c-0.4-0.8-1-2-1.3-2.8 c-0.2-0.7-0.5-1.9-0.7-2.6c-0.1-0.7-0.1-2.1-0.1-3.3c0.1-1.3,0.3-2.6,0.5-3.4c0.2-0.7,0.6-1.8,0.9-2.4c0.3-0.6,0.8-1.5,1.3-2.2 c0.4-0.6,1.4-1.7,2.1-2.4c0.7-0.7,1.8-1.5,2.5-1.9s1.7-0.9,2.5-1.2c0.7-0.3,1.9-0.6,2.6-0.7C41.6,73.7,47,73.7,94.2,73.7 L94.2,73.7z" class="st1"/><path d="M95.5,83v1.7h-6.1v4h5.2v1.7h-5.2v5.3h-1.9l0-6.3c0-3.4,0.1-6.3,0.1-6.4C87.7,83,89.5,83,95.5,83z M77.6,83h8 v1.7h-6.3v4h5.3v1.7h-5.3v5.3h-1.7v-6.4V83z M70.2,83c0.7,0,1.5,0.1,1.9,0.4s1,0.6,1.3,0.9c0.3,0.3,0.7,0.9,0.9,1.2 c0.2,0.5,0.3,1.3,0.4,3.4c0,1.5,0,3.1-0.1,3.6c-0.1,0.5-0.4,1.3-0.8,1.8c-0.3,0.4-1,1-1.4,1.2c-0.6,0.3-1.2,0.4-2.1,0.4 c-1,0-1.5-0.1-2.1-0.4c-0.4-0.2-1-0.6-1.2-0.9c-0.2-0.2-0.6-0.7-0.8-1.1c-0.3-0.6-0.4-1.1-0.4-7.6l0.6-0.9 c0.4-0.7,0.8-1.1,1.6-1.5C68.9,83.1,69.4,83,70.2,83L70.2,83z" class="st0"/><path d="M70.2,84.7c0.4,0,1,0.1,1.3,0.3c0.3,0.1,0.7,0.6,1,0.9c0.3,0.5,0.4,1,0.4,3.4c0,2.1-0.1,3-0.3,3.4 c-0.1,0.3-0.5,0.7-0.8,1c-0.4,0.3-0.8,0.4-1.5,0.4c-0.9,0-1.1-0.1-2.4-1.3l-0.1-3c-0.1-2.5,0-3.1,0.2-3.6c0.1-0.4,0.6-0.8,0.9-1 C69.2,84.9,69.8,84.7,70.2,84.7z" class="st1"/><path d="M43.6,75.7c1.4,0,2.3,0.1,3.4,0.4c0.9,0.2,2.1,0.7,2.8,1c0.7,0.4,1.8,1,2.3,1.5c0.6,0.5,1.5,1.4,2,2 c0.5,0.6,1.2,1.8,1.6,2.6c0.4,0.8,0.9,2.2,1.1,2.9c0.2,1,0.3,2,0.2,3.5c-0.1,1.4-0.2,2.5-0.5,3.3c-0.2,0.7-0.7,1.7-1,2.3 c-0.3,0.6-1,1.5-1.4,2.1c-0.5,0.6-1.4,1.5-2,2c-0.6,0.5-1.8,1.2-2.6,1.6c-0.8,0.4-2.1,0.9-2.8,1c-0.7,0.2-2,0.3-3.1,0.3 c-1.2,0-2.3-0.1-3.3-0.4c-0.8-0.2-2.2-0.7-3.1-1.2c-1.1-0.6-1.9-1.2-3-2.3c-0.8-0.9-1.8-2-2.1-2.6c-0.4-0.6-0.8-1.7-1.1-2.5 c-0.3-0.8-0.6-2.1-0.7-2.9c-0.1-0.9-0.1-2.2,0-3c0.1-0.8,0.4-2,0.6-2.7c0.2-0.7,0.7-1.8,1.2-2.6c0.4-0.7,1.3-1.8,1.9-2.5 c0.6-0.7,1.6-1.5,2.3-2c0.7-0.4,1.7-1,2.3-1.2c0.6-0.2,1.5-0.5,2.1-0.7C41.2,75.9,42.5,75.8,43.6,75.7L43.6,75.7z" class="st0"/><path d="M94.2,31.1l1.3,0.4c0.7,0.2,2.1,0.8,3,1.3c1.2,0.6,2.2,1.3,3.2,2.3c0.8,0.8,1.9,2,2.3,2.7 c0.4,0.7,1.1,1.9,1.4,2.7c0.3,0.7,0.7,2,0.9,2.9c0.2,1.2,0.3,2.1,0.2,3.7c-0.1,1.3-0.3,2.7-0.5,3.4c-0.2,0.7-0.7,1.9-1.1,2.6 c-0.4,0.8-1.1,1.9-1.5,2.5c-0.4,0.6-1.2,1.4-1.7,1.9c-0.5,0.5-1.3,1.1-1.8,1.5c-0.4,0.3-1.4,0.9-2,1.2c-0.7,0.3-1.9,0.8-4.2,1.5 H67.5c-24.5,0-26.4,0-27.6-0.3c-0.7-0.2-2.1-0.8-3.2-1.3c-1.7-0.8-2.2-1.2-3.7-2.7c-1.1-1.1-2.1-2.3-2.6-3.1 c-0.4-0.7-1-1.8-1.2-2.3c-0.2-0.5-0.5-1.6-0.7-2.4c-0.1-0.8-0.3-2.3-0.3-3.3c0-1.3,0.1-2.4,0.4-3.5c0.2-0.9,0.7-2.2,1-2.9 c0.3-0.7,1-1.8,1.4-2.4c0.4-0.6,1.4-1.7,2.1-2.4c0.7-0.7,1.9-1.6,2.6-2c0.7-0.4,1.8-1,2.5-1.2c0.6-0.2,1.7-0.5,2.4-0.7 C41.6,31.1,47,31,94.2,31.1L94.2,31.1z" class="st1"/><path d="M59.9,40.1h1.6l1.5,2.4c0.8,1.3,2.1,3.4,2.8,4.5c0.7,1.1,1.4,2,1.5,2s0.2-1.6,0.2-8.9h1.7v12.6h-1.7l-2.7-4.2 c-1.5-2.3-2.8-4.4-3-4.5c-0.2-0.2-0.2,0.4-0.2,8.8h-1.7v-6.3V40.1z M52.5,39.9c0.6,0,1.3,0.1,1.9,0.4c0.5,0.2,1.2,0.7,1.5,1.1 c0.3,0.4,0.6,1,0.8,1.3c0.2,0.5,0.3,1.5,0.3,3.6c0,2.1-0.1,3.1-0.3,3.6c-0.1,0.4-0.5,1-0.8,1.3c-0.3,0.4-0.9,0.8-1.5,1.1 c-0.5,0.3-1.3,0.4-1.8,0.4c-0.4,0-1.1-0.1-1.5-0.2c-0.4-0.1-1-0.4-1.3-0.6c-0.4-0.3-0.9-0.8-1.2-1.5c-0.5-1-0.5-1.1-0.5-4.2 s0-3.1,0.5-4.2c0.3-0.6,0.8-1.2,1.1-1.4c0.3-0.2,0.9-0.5,1.2-0.6C51.3,40,52,39.9,52.5,39.9L52.5,39.9z" class="st0"/><path d="M52.7,41.7c0.4,0.1,1,0.3,1.2,0.4c0.3,0.2,0.6,0.7,0.8,1c0.3,0.5,0.3,1.2,0.3,3.2c0,2-0.1,2.7-0.3,3.2 c-0.2,0.4-0.6,0.8-0.9,1.1c-0.4,0.3-0.8,0.4-1.5,0.4c-0.6,0-1.1-0.1-1.5-0.4c-0.3-0.2-0.7-0.6-0.8-1c-0.2-0.4-0.3-1.3-0.4-2.9 c0-1.5,0-2.7,0.2-3.1c0.1-0.4,0.3-0.9,0.4-1.1c0.1-0.2,0.5-0.5,0.9-0.6S52.3,41.7,52.7,41.7L52.7,41.7z" class="st1"/><path d="M91.8,33.2c1.9,0.1,2.7,0.1,3.6,0.5c0.7,0.2,1.7,0.7,2.4,1.1c0.7,0.4,1.8,1.1,2.4,1.8c0.7,0.6,1.6,1.6,2,2.2 s1,1.6,1.3,2.2c0.3,0.6,0.6,1.6,0.8,2.4c0.2,0.8,0.3,2,0.3,3.1c0,1-0.1,2.2-0.2,2.7c-0.1,0.5-0.4,1.5-0.7,2.1 c-0.2,0.7-0.8,1.7-1.2,2.4c-0.4,0.7-1.3,1.7-1.9,2.3c-0.6,0.6-1.6,1.4-2.2,1.7c-0.6,0.4-1.6,0.9-2.3,1.2c-0.7,0.3-1.7,0.6-2.3,0.7 c-0.6,0.1-1.8,0.2-2.8,0.2c-1,0-2.3-0.1-3.1-0.4c-0.8-0.2-2-0.7-2.8-1c-0.7-0.4-1.8-1.1-2.4-1.6c-0.6-0.5-1.5-1.3-2-2 c-0.5-0.6-1.2-1.6-1.5-2.3s-0.8-1.9-1-2.8c-0.3-1-0.4-2.1-0.4-3.2c0-1,0.1-2.3,0.3-3.1c0.1-0.7,0.6-2,1-2.9c0.4-0.8,1.2-2,1.6-2.6 c0.5-0.6,1.4-1.5,2-2c0.6-0.5,1.7-1.2,2.4-1.5c0.7-0.4,1.9-0.8,2.6-1C89,33.1,89.7,33.1,91.8,33.2z" class="st36"/></g></g><g><path d="M-0.3-0.2h28.5V20c0,3.8-3.1,6.8-6.8,6.8H-0.3V-0.2z" class="st1"/><text class="st0 st38 st39" transform="matrix(1 0 0 1 2.2218 -2.3225)">29</text><g><path d="M13.1,20.3H3.6v-2L7,14.8c0.7-0.7,1.2-1.3,1.7-1.8s0.7-0.9,0.9-1.3c0.2-0.4,0.3-0.8,0.3-1.2 c0-0.5-0.1-0.9-0.4-1.2S8.7,8.9,8.2,8.9c-0.5,0-1,0.1-1.5,0.4s-1,0.6-1.6,1L3.6,8.5C4,8.1,4.4,7.8,4.8,7.5c0.4-0.3,1-0.5,1.5-0.7 s1.3-0.3,2.1-0.3c0.9,0,1.6,0.2,2.3,0.5c0.6,0.3,1.1,0.8,1.5,1.3c0.3,0.6,0.5,1.2,0.5,1.9c0,0.7-0.1,1.4-0.4,2.1 c-0.3,0.6-0.7,1.2-1.3,1.8s-1.2,1.3-2,2l-1.7,1.6v0.1h5.9V20.3z" class="st0"/><path d="M23.9,12.5c0,0.8-0.1,1.5-0.2,2.3c-0.1,0.8-0.3,1.5-0.6,2.2c-0.3,0.7-0.7,1.3-1.2,1.8c-0.5,0.5-1.2,0.9-2,1.2 c-0.8,0.3-1.8,0.4-2.9,0.4c-0.3,0-0.6,0-0.9,0s-0.7-0.1-0.9-0.1V18c0.3,0.1,0.5,0.1,0.8,0.1c0.3,0,0.6,0.1,0.8,0.1 c1.1,0,2-0.2,2.6-0.5c0.6-0.4,1-0.9,1.3-1.5c0.3-0.6,0.4-1.4,0.4-2.2h-0.1c-0.3,0.4-0.6,0.8-1.1,1.1c-0.4,0.3-1.1,0.5-1.9,0.5 c-1.2,0-2.1-0.4-2.8-1.1c-0.7-0.7-1-1.8-1-3.2c0-1.5,0.4-2.6,1.2-3.5c0.8-0.8,2-1.3,3.4-1.3c0.9,0,1.8,0.2,2.5,0.6 c0.7,0.4,1.3,1.1,1.8,2S23.9,11.1,23.9,12.5z M19,8.9c-0.6,0-1,0.2-1.4,0.6s-0.5,1-0.5,1.8c0,0.7,0.2,1.2,0.5,1.6 c0.3,0.4,0.8,0.6,1.4,0.6c0.4,0,0.8-0.1,1.1-0.3c0.3-0.2,0.6-0.4,0.7-0.7c0.2-0.3,0.3-0.6,0.3-0.9c0-0.4-0.1-0.8-0.2-1.2 c-0.2-0.4-0.4-0.7-0.7-1S19.5,8.9,19,8.9z" class="st0"/></g></g></svg>