<svg xmlns="http://www.w3.org/2000/svg" xmlns:xlink="http://www.w3.org/1999/xlink" id="Capa_1" x="0" y="0" version="1.1" viewBox="0 0 134.9 134.9" style="enable-background:new 0 0 134.9 134.9" xml:space="preserve"><style type="text/css">.st0{fill:#1d1d1b}.st1{fill:#eddfd6}.st35{fill:#ebddd4}.st36{fill:#222}.st37{font-family:&apos;NotoSans-Bold&apos;}.st38{font-size:19px}</style><g id="_x32_7"><rect width="136.1" height="135.6" x="-1" y="-.4" class="st0"/><g><path d="M33.9,62.9c-1.4,1.1-2.4,2-3,3.4c-1.3,2.9-1.6,6-1.5,9.1c0,1.6-0.7,2.8-2,3.6c-2.5,1.6-6-0.1-6.2-3.1 c-0.5-7.9,1.8-14.8,7.4-20.5c1.6-1.6,3.6-2.7,5.8-3.4c1.6-0.4,2.8-1.6,4.4-2.1c4.7-1.7,10.2-0.6,13.8,2.7c0.6,0.6,1,1.3,1,2.2 c0,8.9-0.1,17.8-0.1,26.7c0,0.7-0.3,0.9-1,0.9c-5.9,0-11.8,0-17.7,0c-0.9,0-0.9-0.3-0.9-1c0-5.6,0-11.3,0-16.9 C33.9,64.1,33.9,63.7,33.9,62.9z" class="st35"/><path d="M113.3,65.7c0,4.6,0,9.2,0,13.8c0,0.9-0.2,1.1-1.1,1.1c-6-0.1-12-0.1-17.9-0.1c-0.9,0-1.3-0.2-1.2-1.2 c0.1-3.4,0-6.8,0-10.2c0-0.8,0.2-1.1,1-1.3c5.8-1.5,10.3-4.7,13.3-9.9c0.5-0.9,0.9-1.8,1.2-2.8c0.8-2.8-1.1-5.1-4-5.4 c-2.6-0.2-4,0.9-5,3.1c-1.2,2.6-3.2,4.3-5.7,5.6c-0.7,0.3-1.1,0.4-1-0.6c0-0.9,0.5-2-0.1-2.6c-0.5-0.5-1.6-0.3-2.4-0.4 c-5.8-1.1-10.1-4.4-13.5-9.1c-1-1.4-1.4-3-0.9-4.7c0.3-1.1,1.1-1.8,2.3-1.9c1.4-0.2,2.7,0,3.6,1.3c1.1,1.5,2,3.1,3.5,4.3 c2.6,2.2,5.5,3.4,8.9,3.4c5,0,10.1,0,15.1,0c2.9,0,3.9,1.1,3.9,4C113.3,56.7,113.3,61.2,113.3,65.7z" class="st35"/><path d="M70.1,108.9c-7,0-12.9-6-12.9-13c0-7.6,6.3-13.9,14.1-13.9c7.2,0.1,13,5.7,12.9,13.1 C84.1,102.6,78,108.8,70.1,108.9z M64.5,90c0.2-0.1,0.4-0.1,0.6-0.2c1-0.4,1.5-0.3,1.9,0.9c1,3.5,2.2,7,3.3,10.5 c0.8,2.3,0.8,2.4-1.3,3.4c-0.8,0.4-0.3,0.8-0.3,1.2c0.1,0.7,0.5,0.5,0.9,0.4c1.4-0.4,2.7-0.8,4.1-1.3c1.2-0.4,2.4-0.9,3.6-1.5 c0.7-0.3,1.4-0.9,1.2-1.6c-0.2-0.7-1-0.2-1.6-0.2c-0.3,0-0.7,0.1-1,0.2c-0.5,0.2-0.7,0-0.9-0.4c-1.1-3.1-2.1-6.2-3.1-9.3 c-0.7-2.2-1.5-4.5-2.2-6.7c-0.1-0.3-0.1-0.8-0.7-0.6c-2.1,0.9-4,2-5.7,3.4c-0.5,0.4-0.4,0.8,0.2,1c0.3,0.1,0.5,0.2,0.8,0.3 c-0.1,0.1-0.2,0.1-0.3,0.2C64.2,90.1,64.4,90.1,64.5,90z M63.8,90.1C63.7,90.1,63.7,90.2,63.8,90.1c-0.1,0.1,0,0.2,0,0.2 c0,0,0.1-0.1,0.1-0.1C63.8,90.2,63.8,90.2,63.8,90.1z" class="st35"/><path d="M52.2,38.8C52.1,43,49,47.1,43.6,47c-4.6-0.1-8.3-3.8-8.2-8.3c0.1-4.9,4.4-8.5,8.7-8.3 C48.5,30.5,52.3,34.3,52.2,38.8z" class="st35"/><path d="M86.9,67.6c-2.3-0.1-5-0.4-7.5-1.4c-1.2-0.5-2.3-1.2-2.4-2.8c-0.2-2.8,2.1-4.3,4.9-3.3 c3.8,1.3,7.6,1.4,11.4,0.1c3.7-1.2,6.2-3.7,7.9-7.1c0.9-1.8,3-2.5,4.8-1.6c1.3,0.7,1.9,2,1.4,3.6c-1,3-2.9,5.3-5.2,7.4 C98.2,66,91.9,67.6,86.9,67.6z" class="st35"/><path d="M102.4,91.3c0,2.7,0,5.4,0,8.1c0,2.4-1.9,4.3-4.5,4.5c-2.1,0.2-4.3-1.8-4.7-4c-0.3-1.8-0.2-3.5-0.2-5.3 c0-3.9,0-7.9,0-11.8c0-0.7,0.1-1,0.9-1c2.5,0.1,5.1,0.1,7.6,0c0.9,0,0.9,0.3,0.9,1C102.3,85.8,102.4,88.5,102.4,91.3 C102.4,91.3,102.4,91.3,102.4,91.3z" class="st35"/><path d="M104,91.3c0-2.7,0-5.5,0-8.2c0-0.9,0.3-1.1,1.1-1.1c2.4,0.1,4.8,0,7.2,0c0.7,0,0.9,0.2,0.9,0.9 c0,5.5,0,11.1,0,16.6c0,2.4-2.3,4.6-4.7,4.5c-2.6-0.1-4.6-1.8-4.6-4.4C104,96.8,104,94,104,91.3C104,91.3,104,91.3,104,91.3z" class="st35"/><path d="M33.9,92.8c0-2.6,0-5.2,0-7.9c0-0.8,0.1-1.2,1.1-1.2c2.4,0.1,4.7,0,7.1,0c0.7,0,1,0.2,1,0.9 c0,5.4,0,10.7,0,16.1c0,2.2-2.1,4.4-4.5,4.4c-2.4,0-4.5-2-4.6-4.4C33.8,98.1,33.9,95.5,33.9,92.8z" class="st35"/><path d="M44.6,93c0-2.8,0-5.5,0-8.3c0-0.6,0.1-1,0.9-1c2.2,0.1,4.5,0,6.7,0c0.7,0,1.3,0,1.3,1.1 c-0.1,5.2,0,10.4,0,15.6c0,1.9-0.8,3.4-2.4,4.3c-1.5,0.8-3.2,0.8-4.7-0.3c-1.1-0.8-1.7-1.8-1.7-3.2C44.6,98.5,44.6,95.8,44.6,93z" class="st35"/><path d="M114.9,35.4c-7.9,0-15.6,0-23.3,0c0.6-4.8,5.7-9.3,11.3-9.5C108.4,25.8,113.8,29.8,114.9,35.4z" class="st35"/><path d="M54.4,58.3c0-1.3,0.1-2.6,0-3.9c0-0.6,0.1-0.6,0.6-0.5c2.6,0.7,5.2,0.8,7.9,0.7c1.9-0.1,3.7-0.7,5.5-1.3 c1.9-0.6,3.6,0,4.6,1.6c0.9,1.5,0.8,3.8-0.4,5.1c-0.8,1-1.9,1.5-3.1,1.9c-4.4,1.5-8.9,1.6-13.5,0.9c-1.4-0.2-1.7-0.7-1.6-2 C54.6,60,54.5,59.1,54.4,58.3C54.5,58.3,54.4,58.3,54.4,58.3z" class="st35"/><path d="M103.2,36.9c2.4,0,4.7,0.1,7.1,0c1.2,0,1.5,0.4,1.4,1.5c-0.3,3.3-1.6,5.9-4.7,7.3c-3,1.3-5.9,1.1-8.7-0.6 c-2.6-1.7-3.5-4.2-3.6-7.1c0-0.7,0.2-0.9,0.9-0.9C98.1,36.9,100.7,36.9,103.2,36.9C103.2,36.9,103.2,36.9,103.2,36.9z" class="st35"/><path d="M64.4,89.8c-0.3-0.1-0.5-0.2-0.8-0.3c-0.6-0.3-0.7-0.6-0.2-1c1.8-1.4,3.7-2.5,5.7-3.4 c0.6-0.3,0.6,0.3,0.7,0.6c0.7,2.2,1.5,4.5,2.2,6.7c1,3.1,2.1,6.2,3.1,9.3c0.1,0.4,0.4,0.6,0.9,0.4c0.3-0.1,0.6-0.2,1-0.2 c0.5,0,1.4-0.5,1.6,0.2c0.2,0.7-0.6,1.3-1.2,1.6c-1.2,0.5-2.4,1-3.6,1.5c-1.3,0.5-2.7,0.9-4.1,1.3c-0.4,0.1-0.9,0.3-0.9-0.4 c0-0.4-0.5-0.8,0.3-1.2c2.1-1,2-1.1,1.3-3.4c-1.1-3.5-2.3-7-3.3-10.5c-0.4-1.2-0.9-1.3-1.9-0.9c-0.2,0.1-0.4,0.2-0.6,0.2 C64.5,89.9,64.4,89.9,64.4,89.8z" class="st36"/><path d="M64.5,90c-0.1,0-0.3,0.1-0.4,0c0.1-0.1,0.2-0.1,0.3-0.2C64.4,89.9,64.5,89.9,64.5,90z" class="st36"/><path d="M63.8,90.1c0,0,0.1,0.1,0.1,0.1c0,0,0,0-0.1,0.1C63.7,90.3,63.7,90.2,63.8,90.1 C63.7,90.2,63.7,90.1,63.8,90.1z" class="st36"/></g><g><path d="M-0.2-0.2h28.5V20c0,3.8-3.1,6.8-6.8,6.8H-0.2V-0.2z" class="st1"/><text class="st0 st37 st38" transform="matrix(1 0 0 1 2.2997 -2.333)">27</text><g><path d="M13.2,20.3H3.7v-2l3.4-3.4c0.7-0.7,1.2-1.3,1.7-1.8s0.7-0.9,0.9-1.3c0.2-0.4,0.3-0.8,0.3-1.2 c0-0.5-0.1-0.9-0.4-1.2S8.8,8.9,8.3,8.9c-0.5,0-1,0.1-1.5,0.4s-1,0.6-1.6,1L3.7,8.4C4,8.1,4.5,7.8,4.9,7.5c0.4-0.3,1-0.5,1.5-0.7 s1.3-0.3,2.1-0.3c0.9,0,1.6,0.2,2.3,0.5c0.6,0.3,1.1,0.8,1.5,1.3c0.3,0.6,0.5,1.2,0.5,1.9c0,0.7-0.1,1.4-0.4,2.1 c-0.3,0.6-0.7,1.2-1.3,1.8s-1.2,1.3-2,2l-1.7,1.6v0.1h5.9V20.3z" class="st0"/><path d="M15.9,20.3L21,9.1h-6.7V6.7H24v1.8l-5.1,11.8H15.9z" class="st0"/></g></g></g></svg>