<svg xmlns="http://www.w3.org/2000/svg" xmlns:xlink="http://www.w3.org/1999/xlink" id="Capa_1" x="0" y="0" version="1.1" viewBox="0 0 134.9 134.9" style="enable-background:new 0 0 134.9 134.9" xml:space="preserve"><style type="text/css">.st0{fill:#1d1d1b}.st1{fill:#eddfd6}.st10,.st4{stroke:#1d1d1b;stroke-width:.42;stroke-miterlimit:10}.st4{fill:none}.st10{fill:#eddfd6}.st35{font-family:&apos;NotoSans-Bold&apos;}.st36{font-size:19px}</style><g id="_x32_5"><rect width="135.8" height="135.4" x="-.3" y="-.1" class="st0"/><g><path d="M106.2,52.7l0.6,7.7l-14.4,3.2l9.6,16.5L99.6,82L89,65.6c0,0-11.5,7.5-6.3,26l-30.9-1.4 c0,0,9.2-23.8-15.3-27.6l-0.7-2c0,0-11,2-12.6-6L23,51.2L42.7,54c0,0,4.1,0.9,5.1,3.8L66,56.6l0,0c-0.2-3.9,2.8-7.1,6.7-7.3 l12.5-0.5c1.5-0.1,2.8,1.1,2.9,2.7l0,0l4.6-0.2l-0.5-12.8c0-1,0.7-1.8,1.7-1.9l0,0c1,0,1.8,0.7,1.9,1.7l0.3,7.8l2.8-0.1 C102.7,45.9,105.9,48.8,106.2,52.7L106.2,52.7z" class="st10"/><circle cx="100.9" cy="81.7" r="5.9" class="st10"/><path d="M100.3,65.1c-9.2,0.4-16.3,8.1-15.9,17.3c0.4,9.2,8.1,16.3,17.3,15.9s16.3-8.1,15.9-17.3 C117.2,71.9,109.4,64.8,100.3,65.1z M101.4,91.9c-5.6,0.2-10.4-4.1-10.6-9.8s4.1-10.4,9.8-10.6s10.4,4.2,10.6,9.8 S107,91.7,101.4,91.9z" class="st10"/><polygon points="40.6 63.5 32.8 82 35.7 82.9 43.7 64.7" class="st10"/><circle cx="34.2" cy="81.9" r="5.9" class="st10"/><path d="M33.5,65.3c-9.2,0.4-16.3,8.1-15.9,17.3s8.1,16.3,17.3,15.9c9.2-0.4,16.3-8.1,15.9-17.3 C50.4,72.1,42.7,65,33.5,65.3z M34.6,92.1C29,92.3,24.2,88,24,82.3s4.1-10.4,9.8-10.6s10.4,4.2,10.6,9.8S40.2,91.9,34.6,92.1z" class="st10"/><line x1="52.6" x2="82.1" y1="87.7" y2="89.1" class="st4"/><path d="M66,56.7v4.1h13.5c4.7,0,8.6-3.8,8.6-8.6v-0.6" class="st10"/><circle cx="96.7" cy="50.5" r="1.7" class="st10"/></g><g><path d="M-0.1-0.1h28.5v20.2c0,3.8-3.1,6.8-6.8,6.8H-0.1V-0.1z" class="st1"/><text class="st0 st35 st36" transform="matrix(1 0 0 1 2.3884 -2.2375)">25</text><g><path d="M13.3,20.4H3.8v-2L7.2,15c0.7-0.7,1.2-1.3,1.7-1.8s0.7-0.9,0.9-1.3c0.2-0.4,0.3-0.8,0.3-1.2 c0-0.5-0.1-0.9-0.4-1.2S8.9,9.1,8.4,9.1c-0.5,0-1,0.1-1.5,0.4s-1,0.6-1.6,1L3.7,8.6C4.1,8.3,4.5,8,5,7.7c0.4-0.3,1-0.5,1.5-0.7 s1.3-0.3,2.1-0.3c0.9,0,1.6,0.2,2.3,0.5c0.6,0.3,1.1,0.8,1.5,1.3c0.3,0.6,0.5,1.2,0.5,1.9c0,0.7-0.1,1.4-0.4,2.1 c-0.3,0.6-0.7,1.2-1.3,1.8s-1.2,1.3-2,2l-1.7,1.6V18h5.9V20.4z" class="st0"/><path d="M19.6,11.8c0.8,0,1.6,0.2,2.2,0.5c0.6,0.3,1.2,0.8,1.5,1.4c0.4,0.6,0.6,1.4,0.6,2.3c0,1.5-0.5,2.6-1.4,3.5 c-0.9,0.8-2.3,1.3-4,1.3c-0.7,0-1.4-0.1-2-0.2s-1.2-0.3-1.6-0.6v-2.5c0.5,0.2,1,0.4,1.7,0.6c0.7,0.2,1.3,0.3,1.9,0.3 c0.8,0,1.5-0.2,1.9-0.5c0.4-0.3,0.7-0.9,0.7-1.6c0-1.4-0.9-2.1-2.7-2.1c-0.4,0-0.7,0-1.1,0.1c-0.4,0.1-0.7,0.1-1,0.2l-1.1-0.6 l0.5-6.9H23v2.4h-4.8l-0.2,2.7c0.2,0,0.4-0.1,0.7-0.1C18.8,11.8,19.2,11.8,19.6,11.8z" class="st0"/></g></g></g></svg>