<svg xmlns="http://www.w3.org/2000/svg" xmlns:xlink="http://www.w3.org/1999/xlink" id="Capa_1" x="0" y="0" version="1.1" viewBox="0 0 134.9 134.9" style="enable-background:new 0 0 134.9 134.9" xml:space="preserve"><style type="text/css">.st0{fill:#1d1d1b}.st1{fill:#eddfd6}.st25{fill:none;stroke:#eddfd6;stroke-width:.9265;stroke-miterlimit:10}.st26{font-family:&apos;NotoSans-Bold&apos;}.st27{font-size:19px}</style><g id="_x31_1"><rect width="135.1" height="135.1" x="0" y="-.1" class="st0"/><g><g><g><rect width="6.5" height="78.4" x="43.9" y="31.8" class="st1"/><rect width="59.9" height="6.5" x="43.9" y="31.8" class="st1"/><rect width="6.5" height="78.4" x="97.3" y="31.8" class="st1"/></g><line x1="74.1" x2="74.1" y1="41" y2="110.2" class="st25"/><rect width="41.5" height="68.8" x="53.1" y="41.4" class="st25"/><rect width="30.4" height="2.7" x="58.4" y="24.7" class="st25"/></g><rect width="6" height="10.2" x="31.2" y="69" class="st1"/></g><g><path d="M-0.1-0.2h28.5V20c0,3.8-3.1,6.8-6.8,6.8H-0.1V-0.2z" class="st1"/><text class="st0 st26 st27" transform="matrix(1 0 0 1 2.3909 -2.3118)">11</text><g><path d="M11.3,20.5H8.4v-7.8c0-0.3,0-0.7,0-1.3s0-1,0.1-1.4c-0.1,0.1-0.2,0.2-0.4,0.4c-0.2,0.2-0.4,0.4-0.6,0.5 l-1.6,1.3l-1.4-1.7L8.9,7h2.4V20.5z" class="st0"/><path d="M22.1,20.5h-2.9v-7.8c0-0.3,0-0.7,0-1.3s0-1,0.1-1.4c-0.1,0.1-0.2,0.2-0.4,0.4c-0.2,0.2-0.4,0.4-0.6,0.5 l-1.6,1.3l-1.4-1.7L19.8,7h2.4V20.5z" class="st0"/></g></g></g></svg>