<svg xmlns="http://www.w3.org/2000/svg" xmlns:xlink="http://www.w3.org/1999/xlink" id="Capa_1" x="0" y="0" version="1.1" viewBox="0 0 134.9 134.9" style="enable-background:new 0 0 134.9 134.9" xml:space="preserve"><style type="text/css">.st0{fill:#1d1d1b}.st1{fill:#eddfd6}.st36{fill:#222}.st37{fill:#dbcac2}.st38{font-family:&apos;NotoSans-Bold&apos;}.st39{font-size:19px}</style><g id="_x32_8"><rect width="136.1" height="135.6" x="-.4" y="-.3" class="st0"/><g><path d="M103.6,56.2c0,5,0,9.9,0,14.8c2,0,4.1,0,6.1,0c0,5.7,0,11.4,0,17.2c-2.1,0-4.2,0-6.5,0c0,0.5,0,1,0,1.5 c0,4.7,0,9.4,0,14c0,1,0,1,0.9,1.3c0.1,0.1,0.3,0.2,0.4,0.4c0.6,1.1,1.8,1.6,2.6,2.5c0.1,0.1,0.4,0.1,0.6,0.1c0.6,0,1.2,0,1.9,0 c0.1,0,0.2,0.2,0.3,0.3c-0.1,0.1-0.2,0.4-0.3,0.4c-0.4,0-0.8,0-1.2,0c-1.1,0-2.2,0-3.3,0c-0.8,0-1.7-0.4-2.5-0.3 c-4.2,0.6-8.3,0.2-12.5,0.3c-4.2,0.1-8.4,0-12.6,0c-4.2,0-8.4,0-12.6,0c-4.2,0-8.4,0-12.6,0s-8.4,0-12.6,0s-8.4,0-12.6,0 c-0.3,0-0.6,0-0.9,0c-0.1,0-0.2-0.2-0.2-0.3c0-0.1,0.1-0.3,0.2-0.3c0.5,0,0.9,0,1.4,0c0.4,0,0.7,0,1.1,0c0.3,0,0.8,0.1,0.7-0.5 c0.7-0.7,1.4-1.5,2.2-1.9c0.5-0.3,0.6-0.6,0.6-1.1c0-3.3,0-6.6,0-9.9c0-2.1,0-4.2,0-6.4c-1.7,0-3.4,0-5.1,0 c-0.9,0-1.1-0.2-1.1-1.1c0-5,0-10,0-15c0-0.8,0.2-1,1-1c1.7,0,3.4,0,5.2,0c0-5.2,0-10.3,0-15.5c-1.9,0-3.8,0-5.8,0 c0-6.3,0-12.5,0-18.8c1.9,0,3.9,0,5.9,0c0-0.9,0-1.7,0-2.7c-1.1,0-2.2,0-3.4,0c0.2-1.7,0.9-3,1.2-4.5c0.1-0.3,0.2-0.6,0.4-0.8 c1.5-1.9,3.5-2.7,5.8-2.3c0.8,0.1,1.5,0.8,2.1,1.4c0.8,0.7,1.5,1.5,1.7,2.7c0,0.3,0.5,0.6,0.5,0.9c0.2,0.8,0.2,1.6,0.4,2.5 c-0.7,0-1.3,0-2,0c-0.2,0-0.5-0.1-0.5-0.2c-0.1-0.3,0.2-0.3,0.3-0.5c0.4-0.4,0.3-1,0.1-1.6c-0.3-0.9-1.3-2.3-2.1-2.9 c-0.4-0.3-1.6-0.9-1.9-0.8c-0.7,0.2-1.5,0.3-2,0.7c-1.3,0.9-1.9,2.4-2.3,3.9c-0.1,0.5,0.3,0.9,0.9,0.9c2,0,4.1,0,6.2,0 c0,0.7,0,1.4,0,2.1c0,0.6,0.3,0.9,0.8,0.9c0.4,0,0.7,0,1.1,0c18.6,0,37.2,0,55.8,0c0.5,0,1,0,1.5,0c0,0.1,0,0.2,0,0.2 c-0.2,0-0.4,0.1-0.5,0.1c-1.4-0.2-2.3,0.4-3.2,1.4c-3.4,4.1-7.1,7.9-10.8,11.8c-0.5,0.5-0.6,1.4-1.5,1.7c-0.6,0.2-0.9,1.1-1.4,1.6 c-0.5,0.6-1.1,1.2-1.8,1.9c0.5,0,0.9,0.1,1.3,0.1c6.2,0,12.4,0,18.6,0c0.7,0,1.2-0.2,1.7-0.8c2.8-3,5.6-5.9,8.4-8.9 c0.7-0.8,1.4-1.7,2.2-2.8c0,0.5,0.1,0.9,0.1,1.2c0,3.5,0,7,0,10.6c0,1.1-0.1,1.3-1.2,1.3C106.9,56.2,105.3,56.2,103.6,56.2z" class="st37"/><path d="M106.7,34c-1,0-1.8,0-2.6,0c-0.6,0-0.8,0.3-0.9,0.9c0,0.5,0,1.1,0,1.7c-1.9,0-3.7,0-5.6,0c0-0.8,0-1.6,0-2.5 c-1,0-1.9,0-2.8,0c-0.1-2.2,0.5-4,1.9-5.5c0.5-0.5,0.9-1.1,1.5-1.5c1.8-1.2,4.5-1,6,0.8c0.2,0.3,0.5,0.5,0.8,0.8 c0.9,1,1.3,2.2,1.4,3.5C106.4,32.8,106.6,33.3,106.7,34z" class="st37"/><path d="M55.2,71.7c-1.9-0.1-3.7-0.3-5.5-0.5c-4-0.4-7.9-0.1-11.9-0.3c0-5,0-10,0-15.1c19.9,0,39.9,0,59.8,0 c0,5.1,0,10.2,0,15.4c-0.4,0-0.8,0.1-1.2,0c-1.3-0.3-2.1,0.5-2.7,1.4c-0.4,0.7-0.9,1.2-1.4,1.7c-1.9,2.1-3.9,4.1-5.6,6.3 c-1.3,1.7-2.9,3.2-4.3,4.8c-0.7,0.8-1.4,1.8-2.5,2.6c6.1,0,11.9,0,17.7,0c0,0.3,0.1,0.4,0.1,0.6c0,5.1,0,10.1,0,15.2 c0,0.8-0.1,1.3-0.9,1.6c-0.8,0.3-1.4,1-1.9,1.8c-0.3,0.4-0.6,0.8-1.1,0.7c-1-0.1-2.1,0.3-3.2-0.3c-0.2-0.1-0.6,0-0.9,0 c-11.1,0-22.1,0-33.2,0c-4.7,0.7-9.4,0.2-14.1,0.3c-0.5,0-1,0.1-1.4-0.3c-0.1-0.1-0.3-0.2-0.4-0.4c-0.7-1-1.5-2-2.8-2.4 c0-5.5,0-11.1,0-16.7c6.8,0,13.7,0,20.5,0c0-0.2,0-0.2,0-0.2c0,0-0.1-0.1-0.1-0.1c-3.1,0-6.2,0-9.6,0c0.7-1,1.3-1.9,2.1-2.6 c3.1-3.3,6.3-6.6,9.4-9.9c1-1.1,2-2.2,3.2-3.6c-1.5,0-2.7,0-3.8,0c-0.3,0-0.6,0.2-0.8,0.4c-2.3,2.4-4.6,4.6-6.7,7.1 c-2.1,2.6-4.6,4.9-6.8,7.4c-0.3,0.3-0.5,0.7-0.9,1.2c-0.9,0-1.9,0-2.9,0c-0.1,0-0.3-0.1-0.3-0.2c0-0.1,0.1-0.4,0.1-0.4 c0.8-0.2,0.7-1.4,1.6-1.4c0.2-0.8,0.8-1.2,1.3-1.7c2.3-2.5,4.7-5,7-7.5c1.3-1.4,2.6-2.9,3.9-4.4C55.2,72.1,55.2,72,55.2,71.7z" class="st36"/><path d="M43.5,55.5c5.2-5.5,10.2-10.8,15.2-16.1c0.5-0.6,1.2-1,1.5-1.8c0.1-0.3,0.7-0.5,1.1-0.5c2.9,0,5.8,0,8.7,0 c0,0,0.1,0.1,0.1,0.1c0,0.6-0.5,0.7-0.8,1.1c-0.3,0.5-1.1,0.5-1.2,1.3c-0.7,0.1-0.8,0.9-1.2,1.3c-4.3,4.5-8.6,9.1-12.9,13.6 c-0.6,0.7-1.3,1-2.3,1c-2.4-0.1-4.9,0-7.3,0C44.3,55.5,44,55.5,43.5,55.5z" class="st36"/><path d="M26.2,71.4c3.9,0,7.7,0,11.5,0c0,0.1,0,0.1,0,0.2c-3.3,3.6-6.6,7.2-9.9,10.8c-0.2,0.2-0.3,0.5-0.6,0.6 c-0.4,0.2-0.2,1-0.9,0.9c-0.1-0.5-0.1-0.9-0.1-1.4C26.2,78.8,26.2,75.1,26.2,71.4z" class="st36"/><path d="M59.4,37c-5.5,5.8-10.9,11.5-16.2,17.2c-0.4,0.4-0.8,0.7-0.9,1.3c-0.6,0-1.2,0.1-1.9,0c-0.5,0-1-0.1-1.5-0.2 c0.1-0.5,0.6-0.8,0.9-1.2c0.5-0.8,1.3-1.3,2-2c0.9-0.9,1.7-1.9,2.5-2.8c0.5-0.5,1.1-0.8,1.5-1.4c0.4-0.7,1.1-1.2,1.6-1.8 c0.5-0.5,1-1.1,1.5-1.6c0.5-0.5,1-1.1,1.5-1.6c0.5-0.5,1-1.1,1.5-1.6c0.6-0.6,1.1-1.2,1.7-1.7c0.5-0.5,1.1-1,1.5-1.6 c0.5-0.6,1-0.8,1.7-0.7C57.7,37.1,58.4,37,59.4,37z" class="st36"/><path d="M109.5,48.7c0,2.4,0,4.5,0,6.7c-2,0-3.9,0-5.9,0c0.4-0.7,1.1-1,1.3-1.8c0.2-0.7,1.1-0.8,1.4-1.5 c0.3-0.6,1-1.1,1.5-1.7C108.3,50,108.8,49.4,109.5,48.7z" class="st36"/><path d="M26.2,43.6c0-2.2,0-4.3,0-6.5c1.8,0,3.7,0,5.7,0c-0.1,0.3-0.2,0.5-0.3,0.7c-0.9,1-1.9,2-2.9,3 C27.9,41.7,27.1,42.6,26.2,43.6z" class="st36"/><path d="M104.8,33.4c-1.1,0-2,0-2.9,0c-1.3,0.1-2.5-0.3-3.8,0.3c-0.4,0.2-0.9,0-1.4,0c-0.1-1.5,0.3-2.8,1.3-3.9 c0.2-0.2,0.4-0.4,0.5-0.6c0.5-0.9,1.5-0.9,2.2-1.1c0.7-0.1,1.6,0.3,2.3,0.9C104.1,30.2,104.9,31.5,104.8,33.4z" class="st36"/></g></g><g><path d="M-0.2-0.2h28.5V20c0,3.8-3.1,6.8-6.8,6.8H-0.2V-0.2z" class="st1"/><text class="st0 st38 st39" transform="matrix(1 0 0 1 2.3563 -2.3438)">28</text><g><path d="M13.3,20.3H3.8v-2l3.4-3.4c0.7-0.7,1.2-1.3,1.7-1.8s0.7-0.9,0.9-1.3C10,11.4,10,11,10,10.5 c0-0.5-0.1-0.9-0.4-1.2S8.9,8.9,8.4,8.9c-0.5,0-1,0.1-1.5,0.4s-1,0.6-1.6,1L3.8,8.5C4.1,8.1,4.6,7.8,5,7.5c0.4-0.3,1-0.5,1.5-0.7 s1.3-0.3,2.1-0.3c0.9,0,1.6,0.2,2.3,0.5c0.6,0.3,1.1,0.8,1.5,1.3c0.3,0.6,0.5,1.2,0.5,1.9c0,0.7-0.1,1.4-0.4,2.1 c-0.3,0.6-0.7,1.2-1.3,1.8s-1.2,1.3-2,2l-1.7,1.6v0.1h5.9V20.3z" class="st0"/><path d="M19.3,6.6c0.8,0,1.5,0.1,2.2,0.4c0.7,0.2,1.2,0.6,1.6,1.1c0.4,0.5,0.6,1.1,0.6,1.8c0,0.8-0.2,1.5-0.7,2 c-0.5,0.5-1,1-1.7,1.3c0.5,0.3,0.9,0.5,1.4,0.9c0.4,0.3,0.8,0.7,1.1,1.2c0.3,0.5,0.4,1,0.4,1.6c0,0.7-0.2,1.4-0.6,2 c-0.4,0.6-1,1-1.7,1.3c-0.7,0.3-1.5,0.5-2.5,0.5c-1.5,0-2.7-0.3-3.5-1c-0.8-0.6-1.2-1.5-1.2-2.7c0-0.9,0.3-1.7,0.8-2.3 c0.5-0.6,1.1-1,1.8-1.4c-0.6-0.4-1.1-0.8-1.5-1.4c-0.4-0.5-0.6-1.2-0.6-2c0-0.7,0.2-1.3,0.6-1.8c0.4-0.5,0.9-0.9,1.6-1.1 S18.6,6.6,19.3,6.6z M17.2,16.7c0,0.5,0.2,0.9,0.5,1.2c0.3,0.3,0.9,0.5,1.5,0.5c0.7,0,1.2-0.2,1.6-0.5s0.5-0.7,0.5-1.2 c0-0.3-0.1-0.6-0.3-0.9c-0.2-0.3-0.5-0.5-0.8-0.7s-0.6-0.4-0.9-0.6l-0.2-0.1c-0.6,0.3-1.1,0.6-1.4,1 C17.4,15.7,17.2,16.2,17.2,16.7z M19.3,8.6c-0.5,0-0.9,0.1-1.2,0.4s-0.5,0.6-0.5,1c0,0.5,0.2,0.8,0.5,1.1c0.3,0.3,0.7,0.5,1.2,0.8 c0.4-0.2,0.8-0.4,1.1-0.7c0.3-0.3,0.5-0.7,0.5-1.2c0-0.4-0.2-0.8-0.5-1S19.8,8.6,19.3,8.6z" class="st0"/></g></g></svg>