<svg xmlns="http://www.w3.org/2000/svg" xmlns:xlink="http://www.w3.org/1999/xlink" id="Capa_1" x="0" y="0" version="1.1" viewBox="0 0 134.9 134.9" style="enable-background:new 0 0 134.9 134.9" xml:space="preserve"><style type="text/css">.st0{fill:#1d1d1b}.st1{fill:#eddfd6}.st10{stroke-width:.42;stroke-miterlimit:10}.st3{fill:#1d1d1b;stroke:#eddfd6}.st3,.st4{stroke-width:.42;stroke-miterlimit:10}.st10,.st4{stroke:#1d1d1b}.st4{fill:none}.st10{fill:#eddfd6}.st35{font-family:&apos;NotoSans-Bold&apos;}.st36{font-size:19px}</style><g id="_x32_6"><rect width="136.6" height="135.8" x="-1.1" y="-.7" class="st0"/><g><g><rect width="43" height="67.9" x="10.1" y="33.2" class="st10"/><rect width="40.6" height="66.5" x="11.2" y="34.6" class="st10"/><rect width="33.5" height="62.5" x="14.7" y="38.6" class="st10"/><ellipse cx="42.5" cy="70.9" class="st3" rx=".9" ry="1.3"/><polygon points="14.7 38.6 40.8 43.3 40.8 101.1 48.3 101.1 48.3 38.6" class="st0"/><polygon points="14.7 101.1 46.1 94.5 46.1 101.1" class="st0"/><circle cx="38" cy="70.2" r="1.5" class="st4"/><path d="M44.1,72.4l0.4,0.2c1,0.6,1.3,1.8,0.7,2.8l-7.6,13.1c-0.6,1-1.8,1.3-2.8,0.7l-0.4-0.2 c-1-0.6-1.3-1.8-0.7-2.8l7.6-13.1C41.8,72.2,43.1,71.9,44.1,72.4z" class="st0"/><path d="M24,87.5V87c0-1.1,0.9-2,2.1-2h10c1.1,0,2.1,0.9,2.1,2v0.5c0,1.1-0.9,2.1-2.1,2.1H26 C24.9,89.6,24,88.6,24,87.5z" class="st0"/><path d="M24,85h3.3v4.7c0,1.7-1.3,3-3,3H24V85L24,85L24,85z" class="st0"/></g><g><rect width="43" height="67.9" x="81.2" y="33.2" class="st10"/><rect width="40.6" height="66.5" x="82.5" y="34.6" class="st10"/><rect width="33.5" height="62.5" x="86.1" y="38.6" class="st10"/><ellipse cx="91.8" cy="70.9" class="st3" rx=".9" ry="1.3"/><polygon points="119.6 38.6 93.5 43.3 93.5 101.1 86.1 101.1 86.1 38.6" class="st0"/><polygon points="119.6 101.1 88.3 94.5 88.3 101.1" class="st0"/><circle cx="96.3" cy="70.2" r="1.5" class="st4"/><path d="M99.9,89.1l-0.4,0.2c-1,0.6-2.2,0.2-2.8-0.7l-7.6-13.1c-0.6-1-0.2-2.2,0.7-2.8l0.4-0.2 c1-0.6,2.2-0.2,2.8,0.7l7.6,13.1C101.2,87.3,100.9,88.5,99.9,89.1z" class="st0"/><path d="M96.3,87.5V87c0-1.1,0.9-2.1,2.1-2.1h10c1.1,0,2.1,0.9,2.1,2.1v0.5c0,1.1-0.9,2.1-2.1,2.1h-10 C97.2,89.6,96.3,88.6,96.3,87.5z" class="st0"/><path d="M110.3,92.7H110c-1.7,0-3-1.3-3-3V85h3.3V92.7L110.3,92.7L110.3,92.7z" class="st0"/></g><path d="M53.1,101.1l8.7-5.2c3.6-2.1,7.2-2.1,10.8,0l8.7,5.2V33.2l-8.7,5.3c-3.8,2.3-7.7,2.3-11.5-0.2l-8-5.2 L53.1,101.1L53.1,101.1z" class="st10"/></g><g><path d="M-0.2-0.2h28.5V20c0,3.8-3.1,6.8-6.8,6.8H-0.2V-0.2z" class="st1"/><text class="st0 st35 st36" transform="matrix(1 0 0 1 2.3385 -2.3119)">26</text><g><path d="M13.2,20.3H3.7v-2l3.4-3.4c0.7-0.7,1.2-1.3,1.7-1.8s0.7-0.9,0.9-1.3C9.9,11.5,10,11,10,10.6 c0-0.5-0.1-0.9-0.4-1.2S8.8,9,8.3,9c-0.5,0-1,0.1-1.5,0.4s-1,0.6-1.6,1L3.7,8.5c0.4-0.3,0.8-0.6,1.2-0.9c0.4-0.3,1-0.5,1.5-0.7 s1.3-0.3,2.1-0.3c0.9,0,1.6,0.2,2.3,0.5c0.6,0.3,1.1,0.8,1.5,1.3c0.3,0.6,0.5,1.2,0.5,1.9c0,0.7-0.1,1.4-0.4,2.1 c-0.3,0.6-0.7,1.2-1.3,1.8s-1.2,1.3-2,2l-1.7,1.6v0.1h5.9V20.3z" class="st0"/><path d="M14.5,14.6c0-0.8,0.1-1.5,0.2-2.3c0.1-0.8,0.3-1.5,0.6-2.2s0.7-1.3,1.2-1.8c0.5-0.5,1.2-0.9,2-1.2 c0.8-0.3,1.8-0.4,2.9-0.4c0.3,0,0.6,0,0.9,0c0.4,0,0.7,0.1,0.9,0.1v2.3C22.9,9,22.6,9,22.3,8.9c-0.3,0-0.6-0.1-0.8-0.1 c-1.1,0-2,0.2-2.6,0.5c-0.6,0.4-1,0.9-1.3,1.5c-0.3,0.6-0.4,1.4-0.4,2.2h0.1c0.3-0.4,0.6-0.8,1.1-1.1c0.5-0.3,1.1-0.5,1.9-0.5 c1.2,0,2.1,0.4,2.8,1.1c0.7,0.7,1,1.8,1,3.2c0,1.5-0.4,2.6-1.2,3.5c-0.8,0.8-2,1.3-3.4,1.3c-0.9,0-1.8-0.2-2.5-0.6 c-0.7-0.4-1.3-1.1-1.8-2S14.5,15.9,14.5,14.6z M19.4,18.2c0.6,0,1-0.2,1.4-0.6c0.4-0.4,0.5-1,0.5-1.8c0-0.7-0.2-1.2-0.5-1.6 c-0.3-0.4-0.8-0.6-1.4-0.6c-0.4,0-0.8,0.1-1.1,0.3c-0.3,0.2-0.6,0.4-0.7,0.7c-0.2,0.3-0.3,0.6-0.3,0.9c0,0.4,0.1,0.8,0.2,1.2 c0.2,0.4,0.4,0.7,0.7,1C18.6,18.1,19,18.2,19.4,18.2z" class="st0"/></g></g></g></svg>