<svg xmlns="http://www.w3.org/2000/svg" xmlns:xlink="http://www.w3.org/1999/xlink" id="Capa_1" x="0" y="0" version="1.1" viewBox="0 0 134.9 134.9" style="enable-background:new 0 0 134.9 134.9" xml:space="preserve"><style type="text/css">.st0{fill:#1d1d1b}.st1{fill:#eddfd6}.st19{fill:none;stroke:#eddfd6;stroke-width:17;stroke-miterlimit:10}.st20{font-family:&apos;NotoSans-Bold&apos;}.st21{font-size:19px}</style><g id="_x30_7"><rect width="135.3" height="135.3" x="-.2" y="-.1" class="st0"/><g><g><rect width="17.8" height="87.2" x="50.8" y="23.9" class="st1"/><path d="M61.9,105.5l4.6-5.6c2.1-2.6,4.4-5.1,6.9-7.4c18.9-17.2,17.7-34.6,0.4-47.7c-6-4.5-10.7-10.6-13.2-17.7l0,0" class="st19"/><g><path d="M48,64.9h23.3c0.1,0,0.2,0.1,0.2,0.2v7.8c0,0.1-0.1,0.2-0.2,0.2H48c-0.1,0-0.2-0.1-0.2-0.2v-7.8 C47.8,65,47.9,64.9,48,64.9z" class="st0"/><path d="M71.3,65.1v7.8H48v-7.8H71.3 M71.3,64.7H48c-0.2,0-0.4,0.2-0.4,0.4v7.8c0,0.2,0.2,0.4,0.4,0.4h23.3 c0.2,0,0.4-0.2,0.4-0.4v-7.8C71.7,64.9,71.5,64.7,71.3,64.7L71.3,64.7z" class="st1"/></g></g><g><path d="M59.1,32h1.1c0.1,0,0.2,0.1,0.2,0.2v9.3c0,0.1-0.1,0.2-0.2,0.2h-1.1c-0.1,0-0.2-0.1-0.2-0.2v-9.3 C58.9,32.1,59,32,59.1,32z" class="st0"/><path d="M60.2,32.2v9.3h-1.1v-9.3H60.2 M60.2,31.8h-1.1c-0.2,0-0.4,0.2-0.4,0.4v9.3c0,0.2,0.2,0.4,0.4,0.4h1.1 c0.2,0,0.4-0.2,0.4-0.4v-9.3C60.6,32,60.4,31.8,60.2,31.8L60.2,31.8z" class="st1"/></g><g><path d="M59.1,51.1h1.1c0.1,0,0.2,0.1,0.2,0.2v9.3c0,0.1-0.1,0.2-0.2,0.2h-1.1c-0.1,0-0.2-0.1-0.2-0.2v-9.3 C58.9,51.2,59,51.1,59.1,51.1z" class="st0"/><path d="M60.2,51.3v9.3h-1.1v-9.3H60.2 M60.2,50.9h-1.1c-0.2,0-0.4,0.2-0.4,0.4v9.3c0,0.2,0.2,0.4,0.4,0.4h1.1 c0.2,0,0.4-0.2,0.4-0.4v-9.3C60.6,51.1,60.4,50.9,60.2,50.9L60.2,50.9z" class="st1"/></g><g><path d="M59.1,73.2h1.1c0.1,0,0.2,0.1,0.2,0.2v6.3c0,0.1-0.1,0.2-0.2,0.2h-1.1c-0.1,0-0.2-0.1-0.2-0.2v-6.3 C58.9,73.3,59,73.2,59.1,73.2z" class="st0"/><path d="M60.2,73.4v6.3h-1.1v-6.3H60.2 M60.2,73h-1.1c-0.2,0-0.4,0.2-0.4,0.4v6.3c0,0.2,0.2,0.4,0.4,0.4h1.1 c0.2,0,0.4-0.2,0.4-0.4v-6.3C60.6,73.2,60.4,73,60.2,73L60.2,73z" class="st1"/></g><g><path d="M59.1,89.2h1.1c0.1,0,0.2,0.1,0.2,0.2v9.3c0,0.1-0.1,0.2-0.2,0.2h-1.1c-0.1,0-0.2-0.1-0.2-0.2v-9.3 C58.9,89.3,59,89.2,59.1,89.2z" class="st0"/><path d="M60.2,89.4v9.3h-1.1v-9.3H60.2 M60.2,89h-1.1c-0.2,0-0.4,0.2-0.4,0.4v9.3c0,0.2,0.2,0.4,0.4,0.4h1.1 c0.2,0,0.4-0.2,0.4-0.4v-9.3C60.6,89.2,60.4,89,60.2,89L60.2,89z" class="st1"/></g></g><g><path d="M-0.1-0.1h28.5V20c0,3.8-3.1,6.8-6.8,6.8H-0.1V-0.1z" class="st1"/><text class="st0 st20 st21" transform="matrix(1 0 0 1 2.4512 -2.2692)">07</text><g><path d="M13.9,13.9c0,1.5-0.2,2.7-0.5,3.7s-0.8,1.8-1.5,2.4c-0.7,0.6-1.6,0.8-2.8,0.8c-1.6,0-2.8-0.6-3.6-1.8 s-1.1-2.9-1.1-5.1c0-1.5,0.2-2.7,0.5-3.8c0.3-1,0.8-1.8,1.5-2.4C7.1,7.2,8,6.9,9.1,6.9c1.6,0,2.8,0.6,3.6,1.8 C13.5,10,13.9,11.7,13.9,13.9z M7.3,13.9c0,1.5,0.1,2.7,0.4,3.5c0.3,0.8,0.8,1.2,1.5,1.2c0.7,0,1.2-0.4,1.5-1.2 c0.3-0.8,0.4-1.9,0.4-3.5c0-1.5-0.1-2.7-0.4-3.5c-0.3-0.8-0.8-1.2-1.5-1.2c-0.7,0-1.2,0.4-1.5,1.2C7.4,11.2,7.3,12.4,7.3,13.9z" class="st0"/><path d="M16.7,20.7l5.1-11.2h-6.7V7.1h9.7v1.8l-5.1,11.8H16.7z" class="st0"/></g></g></g></svg>