<svg xmlns="http://www.w3.org/2000/svg" xmlns:xlink="http://www.w3.org/1999/xlink" id="Capa_1" x="0" y="0" version="1.1" viewBox="0 0 134.9 134.9" style="enable-background:new 0 0 134.9 134.9" xml:space="preserve"><style type="text/css">.st0{fill:#1d1d1b}.st1{fill:#eddfd6}.st12{stroke-width:.6356}.st12,.st13,.st14{fill:#eddfd6;stroke:#1d1d1b;stroke-miterlimit:10}.st13{stroke-width:.5996}.st14{stroke-width:.5037}.st15{font-family:&apos;NotoSans-Bold&apos;}.st16{font-size:19px}</style><g id="_x30_5"><rect width="135.3" height="135.3" x="-.3" y="-.1" class="st0"/><g><g><circle cx="67.3" cy="67.5" r="43.1" class="st12"/><circle cx="67.3" cy="67.5" r="40.6" class="st13"/><circle cx="67.3" cy="67.5" r="34.6" class="st14"/></g><g><path d="M93.5,51.8c-0.5-2.7-1.8-5.2-3.9-7.3c-2-2-4.5-3.3-7.3-3.9c2.7-0.5,5.2-1.8,7.3-3.9c2-2,3.3-4.5,3.9-7.3 c1.1,5.6,5.5,10,11.1,11.1c-2.7,0.5-5.3,1.8-7.3,3.9C95.3,46.6,94,49.1,93.5,51.8L93.5,51.8z" class="st0"/><path d="M93.5,30.7c1.3,4.8,5.2,8.7,10,10c-2.4,0.6-4.5,1.9-6.3,3.7c-1.8,1.8-3,3.9-3.7,6.3 c-0.6-2.4-1.9-4.5-3.7-6.3c-1.8-1.8-3.9-3-6.3-3.7c2.4-0.6,4.5-1.9,6.3-3.7C91.6,35.2,92.8,33,93.5,30.7 M93.5,26.9 c0,3.8-1.5,7.3-4,9.7c-2.5,2.5-5.9,4-9.7,4c3.8,0,7.3,1.5,9.7,4c2.5,2.5,4,5.9,4,9.8c0-3.8,1.5-7.3,4-9.8c2.5-2.5,5.9-4,9.8-4 C99.7,40.7,93.5,34.5,93.5,26.9L93.5,26.9L93.5,26.9z" class="st1"/></g><g><polygon points="66.3 42.8 52.1 66.5 66.3 60.4 80.7 66.5" class="st0"/><polygon points="53.1 69 66.3 63.6 79.7 69.3 66.5 76.9" class="st0"/><polygon points="52.3 71.9 66.5 92 80.8 72.1 66.5 80.4" class="st0"/></g></g><g><path d="M-0.1-0.1h28.5v20.2c0,3.8-3.1,6.8-6.8,6.8H-0.1V-0.1z" class="st1"/><g><path d="M13.7,14.1c0,1.5-0.2,2.7-0.5,3.7s-0.8,1.8-1.5,2.4C11.1,20.7,10.2,21,9,21c-1.6,0-2.8-0.6-3.6-1.8 s-1.1-2.9-1.1-5.1c0-1.5,0.2-2.7,0.5-3.8c0.3-1,0.8-1.8,1.5-2.4C6.9,7.3,7.8,7.1,9,7.1c1.6,0,2.8,0.6,3.6,1.8 C13.4,10.1,13.7,11.8,13.7,14.1z M7.1,14.1c0,1.5,0.1,2.7,0.4,3.5c0.3,0.8,0.8,1.2,1.5,1.2c0.7,0,1.2-0.4,1.5-1.2 c0.3-0.8,0.4-1.9,0.4-3.5c0-1.5-0.1-2.7-0.4-3.5C10.2,9.8,9.7,9.4,9,9.4c-0.7,0-1.2,0.4-1.5,1.2C7.3,11.3,7.1,12.5,7.1,14.1z" class="st0"/><path d="M20.2,12.2c0.8,0,1.6,0.2,2.2,0.5c0.6,0.3,1.2,0.8,1.5,1.4c0.4,0.6,0.6,1.4,0.6,2.3c0,1.5-0.5,2.6-1.4,3.5 c-0.9,0.8-2.3,1.3-4,1.3c-0.7,0-1.4-0.1-2-0.2s-1.2-0.3-1.6-0.6v-2.5c0.5,0.2,1,0.4,1.7,0.6c0.7,0.2,1.3,0.3,1.9,0.3 c0.8,0,1.5-0.2,1.9-0.5c0.4-0.3,0.7-0.9,0.7-1.6c0-1.4-0.9-2.1-2.7-2.1c-0.4,0-0.7,0-1.1,0.1c-0.4,0.1-0.7,0.1-1,0.2l-1.1-0.6 l0.5-6.9h7.4v2.4h-4.8l-0.2,2.7c0.2,0,0.4-0.1,0.7-0.1C19.4,12.2,19.7,12.2,20.2,12.2z" class="st0"/></g><text class="st0 st15 st16" transform="matrix(1 0 0 1 3.9753 -5.5971)">05</text></g></g></svg>