<svg xmlns="http://www.w3.org/2000/svg" xmlns:xlink="http://www.w3.org/1999/xlink" id="Capa_1" x="0" y="0" version="1.1" viewBox="0 0 134.9 134.9" style="enable-background:new 0 0 134.9 134.9" xml:space="preserve"><style type="text/css">.st0{fill:#1d1d1b}.st1{fill:#eddfd6}.st11,.st3,.st5{stroke:#1d1d1b;stroke-width:.42}.st3{fill:#eddfd6;stroke-linecap:round;stroke-linejoin:round}.st11,.st5{stroke-miterlimit:10}.st5{fill:none}.st11{fill:#eddfd6}.st26{font-family:&apos;NotoSans-Bold&apos;}.st27{font-size:19px}</style><g id="_x31_4"><rect width="135" height="134.9" x="0" y="0" class="st0"/><g><g><polygon points="31 46.6 27.4 50.2 27.4 46.6" class="st11"/><polygon points="44.4 46.6 32.8 58.1 27.4 58.1 27.4 54.7 35.5 46.6" class="st11"/><polygon points="57.7 46.6 46.1 58.1 37.3 58.1 48.9 46.6" class="st11"/><polygon points="71 46.6 59.4 58.1 50.6 58.1 62.2 46.6" class="st11"/><polygon points="84.3 46.6 72.7 58.1 63.9 58.1 75.5 46.6" class="st11"/><polygon points="97.6 46.6 86.1 58.1 77.3 58.1 88.8 46.6" class="st11"/><polygon points="107.5 46.6 107.5 50 99.4 58.1 90.6 58.1 102.1 46.6" class="st11"/><polygon points="103.9 58.1 107.5 54.5 107.5 58.1" class="st11"/></g><g><polygon points="31 63.6 27.4 67.2 27.4 63.6" class="st11"/><polygon points="44.4 63.6 32.8 75.1 27.4 75.1 27.4 71.7 35.5 63.6" class="st11"/><polygon points="57.7 63.6 46.1 75.1 37.3 75.1 48.9 63.6" class="st11"/><polygon points="71 63.6 59.4 75.1 50.6 75.1 62.2 63.6" class="st11"/><polygon points="84.3 63.6 72.7 75.1 63.9 75.1 75.5 63.6" class="st11"/><polygon points="97.6 63.6 86.1 75.1 77.3 75.1 88.8 63.6" class="st11"/><polygon points="107.5 63.6 107.5 67 99.4 75.1 90.6 75.1 102.1 63.6" class="st11"/><polygon points="103.9 75.1 107.5 71.5 107.5 75.1" class="st11"/></g><rect width="80.1" height="11.6" x="27.4" y="46.6" class="st5"/><rect width="80.1" height="11.6" x="27.4" y="63.6" class="st5"/><rect width="12.3" height="3" x="61.5" y="43.1" class="st3"/><g><path d="M62,42.5v-1c0-3.2,2.6-5.7,5.7-5.7s5.7,2.6,5.7,5.7v1C73.4,42.5,62,42.5,62,42.5z" class="st0"/><path d="M67.7,36.1c3,0,5.5,2.5,5.5,5.5v0.8h-11v-0.8C62.2,38.6,64.7,36.1,67.7,36.1 M67.7,35.7L67.7,35.7 c-3.3,0-5.9,2.7-5.9,5.9v1.2h11.9v-1.2C73.6,38.3,71,35.7,67.7,35.7L67.7,35.7L67.7,35.7z" class="st1"/></g><rect width="12.3" height="3" x="34.8" y="34" class="st3"/><g><path d="M35.2,33.1v-1c0-3.1,2.6-5.7,5.7-5.7s5.7,2.6,5.7,5.7v1C46.6,33.1,35.2,33.1,35.2,33.1z" class="st0"/><path d="M40.9,26.6c3,0,5.5,2.5,5.5,5.5v0.8h-11v-0.8C35.4,29.1,37.9,26.6,40.9,26.6 M40.9,26.2 c-3.3,0-5.9,2.6-5.9,5.9v1.2h11.8v-1.2C46.9,28.8,44.2,26.2,40.9,26.2L40.9,26.2L40.9,26.2z" class="st1"/></g><rect width="12.3" height="3" x="88" y="34" class="st3"/><g><path d="M88.5,33.1v-1c0-3.1,2.6-5.7,5.7-5.7s5.7,2.6,5.7,5.7v1H88.5z" class="st0"/><path d="M94.2,26.6c3,0,5.5,2.5,5.5,5.5v0.8h-11v-0.8C88.7,29.1,91.2,26.6,94.2,26.6 M94.2,26.2 c-3.3,0-5.9,2.6-5.9,5.9v1.2h11.8v-1.2C100.1,28.8,97.5,26.2,94.2,26.2L94.2,26.2L94.2,26.2z" class="st1"/></g><rect width="6.9" height="71.8" x="37.5" y="37" class="st11"/><rect width="6.9" height="71.8" x="90.8" y="37" class="st11"/><rect width="46.4" height="4.8" x="44.4" y="87.8" class="st11"/></g><g><path d="M-0.1-0.2h28.5V20c0,3.8-3.1,6.8-6.8,6.8H-0.1V-0.2z" class="st1"/><text class="st0 st26 st27" transform="matrix(1 0 0 1 2.3593 -2.333)">14</text><g><path d="M11.3,20.4H8.4v-7.8c0-0.3,0-0.7,0-1.3s0-1,0.1-1.4c-0.1,0.1-0.2,0.2-0.4,0.4c-0.2,0.2-0.4,0.4-0.6,0.5L6,12 l-1.4-1.7L9,6.8h2.4V20.4z" class="st0"/><path d="M24.9,17.6h-1.6v2.8h-2.8v-2.8h-5.8v-2l5.9-8.8h2.6v8.5h1.6V17.6z M20.5,15.4v-2.3c0-0.3,0-0.6,0-1.1 s0-0.8,0-1.2c0-0.4,0-0.6,0-0.7h-0.1c-0.1,0.3-0.2,0.5-0.4,0.7c-0.1,0.2-0.3,0.5-0.4,0.7l-2.5,3.8H20.5z" class="st0"/></g></g></g></svg>